<svg width="124" height="124" viewBox="0 0 124 124" fill="none" xmlns="http://www.w3.org/2000/svg">
<path fill-rule="evenodd" clip-rule="evenodd" d="M101.989 21.2604H120.125V74.1724H101.989V21.2604ZM106.805 113.203C106.805 123.558 69.3063 123.558 69.3063 113.203C69.3063 102.849 77.7017 94.4548 88.0562 94.4548C98.4107 94.4546 106.805 102.849 106.805 113.203ZM54.6937 113.203C54.6937 123.558 17.1953 123.558 17.1953 113.203C17.1953 102.849 25.5907 94.4548 35.9452 94.4548C46.2997 94.4548 54.6937 102.849 54.6937 113.203ZM79.3905 80.7952C79.3905 85.5813 83.2701 89.4609 88.0562 89.4609C92.8423 89.4609 96.7217 85.5813 96.7217 80.7952C96.7217 76.0106 92.8421 72.131 88.0562 72.131C83.2701 72.131 79.3905 76.0106 79.3905 80.7952ZM27.2795 80.7952C27.2795 85.5813 31.1591 89.4609 35.9452 89.4609C40.7313 89.4609 44.6109 85.5813 44.6109 80.7952C44.6109 76.0106 40.7313 72.131 35.9452 72.131C31.1591 72.131 27.2795 76.0106 27.2795 80.7952ZM53.335 69.6333C53.335 74.4194 57.2146 78.299 62.0007 78.299C66.7868 78.299 70.6664 74.4194 70.6664 69.6333C70.6664 64.8486 66.7868 60.969 62.0007 60.969C57.2146 60.969 53.335 64.8486 53.335 69.6333ZM66.2044 109.63C67.3848 102.36 72.1065 96.2768 78.5412 93.2085C75.3833 87.3076 69.1612 83.2926 62.0005 83.2926C54.84 83.2926 48.6172 87.3076 45.4591 93.2083C51.8938 96.2766 56.6152 102.359 57.7954 109.63C60.5561 109.865 63.4437 109.865 66.2044 109.63ZM24.7947 38.7737L97.0242 11.036L94.5781 15.344C94.1172 16.1559 94.402 17.1878 95.2138 17.6485C96.0257 18.1093 97.0576 17.8245 97.5182 17.0127L102.292 8.60396C102.841 7.63763 102.32 6.42209 101.261 6.1368L92.1773 3.11623C91.2923 2.82367 90.3374 3.30393 90.0448 4.18912C89.7523 5.07408 90.2325 6.02902 91.1177 6.32158L95.8174 7.88418L23.5893 35.6217C22.7189 35.9544 22.2829 36.93 22.6157 37.8004C22.9487 38.6708 23.9242 39.1065 24.7947 38.7737ZM3.875 53.9303H22.0105V74.1721H3.875V53.9303ZM36.5798 43.0404H54.7152V60.0293C50.3743 63.327 48.7858 69.1491 50.8291 74.1724H46.0185C43.9713 71.0661 40.5264 68.9619 36.5798 68.757V43.0404ZM69.2845 32.1504H87.4202V68.757C83.474 68.9622 80.0296 71.0663 77.9827 74.1724H73.1719C75.2157 69.1484 73.6265 63.3257 69.2845 60.0284V32.1504Z" fill="#25D366"/>
</svg>
