<svg width="20" height="20" viewBox="0 0 20 20" fill="none" xmlns="http://www.w3.org/2000/svg">
<g id="Frame">
<path id="Vector" d="M9.1665 19.6583V16.6583C4.9915 16.4417 1.6665 12.975 1.6665 8.75001C1.6665 4.38334 5.2165 0.833344 9.58317 0.833344C13.9498 0.833344 17.4998 4.38334 17.4998 8.75001C17.4998 12.875 14.6332 17.025 10.3582 19.0833L9.1665 19.6583ZM9.58317 2.50001C6.13317 2.50001 3.33317 5.30001 3.33317 8.75001C3.33317 12.2 6.13317 15 9.58317 15H10.8332V16.9167C13.8665 15 15.8332 11.85 15.8332 8.75001C15.8332 5.30001 13.0332 2.50001 9.58317 2.50001ZM8.74984 12.0833H10.4165V13.75H8.74984V12.0833ZM10.4165 10.8333H8.74984C8.74984 8.12501 11.2498 8.33334 11.2498 6.66668C11.2498 5.75001 10.4998 5.00001 9.58317 5.00001C8.6665 5.00001 7.9165 5.75001 7.9165 6.66668H6.24984C6.24984 4.82501 7.7415 3.33334 9.58317 3.33334C11.4248 3.33334 12.9165 4.82501 12.9165 6.66668C12.9165 8.75001 10.4165 8.95834 10.4165 10.8333Z" fill="#1D1E25"/>
</g>
</svg>
